<?xml version="1.0" encoding="us-ascii" standalone="no"?><svg xmlns="http://www.w3.org/2000/svg" xmlns:xlink="http://www.w3.org/1999/xlink" contentStyleType="text/css" height="816px" preserveAspectRatio="none" style="width:1119px;height:816px;background:#FFFFFF;" version="1.1" viewBox="0 0 1119 816" width="1119px" zoomAndPan="magnify"><defs><filter height="1" id="b5ffb906vc0pe0" width="1" x="0" y="0"><feFlood flood-color="#90EE90" result="flood"/><feComposite in="SourceGraphic" in2="flood" operator="over"/></filter><filter height="1" id="b5ffb906vc0pe1" width="1" x="0" y="0"><feFlood flood-color="#00FFFF" result="flood"/><feComposite in="SourceGraphic" in2="flood" operator="over"/></filter><filter height="1" id="b5ffb906vc0pe2" width="1" x="0" y="0"><feFlood flood-color="#FFA500" result="flood"/><feComposite in="SourceGraphic" in2="flood" operator="over"/></filter></defs><g><text fill="#000000" font-family="sans-serif" font-size="14" font-weight="bold" lengthAdjust="spacing" textLength="517" x="294" y="25.1074">Keyple - keyple-card-calypso-crypto-legacysam-java-lib - 0.4.+ (2023-09-19)</text><rect fill="#DDDDDD" height="103.1055" id="_legend" rx="7.5" ry="7.5" style="stroke:#000000;stroke-width:1.0;" width="322" x="391.5" y="51.6211"/><text fill="#000000" font-family="sans-serif" font-size="14" lengthAdjust="spacing" text-decoration="underline" textLength="88" x="396.5" y="71.7285">Colors legend</text><text fill="#000000" font-family="sans-serif" font-size="14" lengthAdjust="spacing" textLength="4" x="488.5" y="71.7285">:</text><ellipse cx="402" cy="86.3633" fill="#000000" rx="2.5" ry="2.5" style="stroke:#000000;stroke-width:0.0;"/><text fill="#000000" font-family="sans-serif" font-size="14" lengthAdjust="spacing" text-decoration="underline" textLength="148" x="408.5" y="90.3496">External API references</text><text fill="#000000" font-family="sans-serif" font-size="14" lengthAdjust="spacing" textLength="4" x="560.5" y="90.3496">:</text><rect fill="#000000" height="3.5" style="stroke:#000000;stroke-width:0.0;" width="3.5" x="405.5" y="102.4844"/><text fill="#000000" filter="url(#b5ffb906vc0pe0)" font-family="sans-serif" font-size="14" font-weight="bold" lengthAdjust="spacing" textLength="296" x="412.5" y="108.9707">keypop-calypso-crypto-legacysam-java-api</text><rect fill="#000000" height="3.5" style="stroke:#000000;stroke-width:0.0;" width="3.5" x="405.5" y="121.1055"/><text fill="#000000" filter="url(#b5ffb906vc0pe1)" font-family="sans-serif" font-size="14" font-weight="bold" lengthAdjust="spacing" textLength="170" x="412.5" y="127.5918">keyple-common-java-api</text><rect fill="#000000" height="3.5" style="stroke:#000000;stroke-width:0.0;" width="3.5" x="405.5" y="139.7266"/><text fill="#000000" filter="url(#b5ffb906vc0pe2)" font-family="sans-serif" font-size="14" font-weight="bold" lengthAdjust="spacing" textLength="229" x="412.5" y="146.2129">keyple-service-resource-java-lib</text><!--cluster legacysam--><g id="cluster_legacysam"><path d="M8.5,173.7402 L355.5,173.7402 A3.75,3.75 0 0 1 358,176.2402 L365,198.3613 L1109.5,198.3613 A2.5,2.5 0 0 1 1112,200.8613 L1112,807.2402 A2.5,2.5 0 0 1 1109.5,809.7402 L8.5,809.7402 A2.5,2.5 0 0 1 6,807.2402 L6,176.2402 A2.5,2.5 0 0 1 8.5,173.7402 " fill="#F8F9F9" style="stroke:#000000;stroke-width:1.5;"/><line style="stroke:#000000;stroke-width:1.5;" x1="6" x2="365" y1="198.3613" y2="198.3613"/><text fill="#000000" font-family="sans-serif" font-size="14" font-weight="bold" lengthAdjust="spacing" textLength="346" x="10" y="190.8477">org.eclipse.keyple.card.calypso.crypto.legacysam</text></g><!--class LegacySamExtensionService--><g id="elem_LegacySamExtensionService"><rect codeLine="62" fill="#E9F7EF" height="309.3164" id="LegacySamExtensionService" rx="2.5" ry="2.5" style="stroke:#27AE60;stroke-width:2.0;" width="1074" x="22" y="210.7402"/><ellipse cx="441.25" cy="234.3613" fill="#ADD1B2" rx="11" ry="11" style="stroke:#181818;stroke-width:1.0;"/><path d="M444.0156,230.2363 Q444.1719,230.0176 444.3594,229.9082 Q444.5469,229.7988 444.7656,229.7988 Q445.1406,229.7988 445.375,230.0645 Q445.6094,230.3145 445.6094,230.9238 L445.6094,232.377 Q445.6094,232.9863 445.375,233.252 Q445.1406,233.5176 444.7656,233.5176 Q444.4219,233.5176 444.2188,233.3145 Q444.0156,233.127 443.9063,232.6113 Q443.8594,232.252 443.6719,232.0645 Q443.3438,231.6895 442.7344,231.4707 Q442.125,231.252 441.5,231.252 Q440.7344,231.252 440.0938,231.5801 Q439.4688,231.9082 438.9688,232.6582 Q438.4844,233.4082 438.4844,234.4395 L438.4844,235.5332 Q438.4844,236.7676 439.375,237.5957 Q440.2656,238.4082 441.8594,238.4082 Q442.7969,238.4082 443.4531,238.1582 Q443.8438,238.002 444.2656,237.5645 Q444.5313,237.2988 444.6719,237.2207 Q444.8281,237.1426 445.0313,237.1426 Q445.3594,237.1426 445.6094,237.4082 Q445.875,237.6582 445.875,238.002 Q445.875,238.3457 445.5313,238.752 Q445.0313,239.3301 444.2344,239.6582 Q443.1563,240.1113 441.8594,240.1113 Q440.3438,240.1113 439.1406,239.4863 Q438.1563,238.9863 437.4688,237.9238 Q436.7813,236.8457 436.7813,235.5645 L436.7813,234.4082 Q436.7813,233.0801 437.3906,231.9395 Q438.0156,230.7832 439.1094,230.1738 Q440.2031,229.5488 441.4375,229.5488 Q442.1719,229.5488 442.8125,229.7207 Q443.4688,229.877 444.0156,230.2363 Z " fill="#000000"/><ellipse cx="466.75" cy="233.8613" fill="#84BE84" rx="3" ry="3" style="stroke:#038048;stroke-width:1.0;"/><text fill="#000000" font-family="sans-serif" font-size="14" lengthAdjust="spacing" textLength="16" x="497.25" y="230.8477">&lt;&lt;</text><text fill="#000000" filter="url(#b5ffb906vc0pe1)" font-family="sans-serif" font-size="14" lengthAdjust="spacing" textLength="135" x="513.25" y="230.8477">KeypleCardExtension</text><text fill="#000000" font-family="sans-serif" font-size="14" lengthAdjust="spacing" textLength="16" x="648.25" y="230.8477">&gt;&gt;</text><text fill="#0000FF" font-family="sans-serif" font-size="14" font-weight="bold" lengthAdjust="spacing" textLength="30" x="472.75" y="249.4688">final</text><text fill="#0000FF" font-family="sans-serif" font-size="14" lengthAdjust="spacing" textLength="182" x="506.75" y="249.4688">LegacySamExtensionService</text><line style="stroke:#27AE60;stroke-width:2.0;" x1="23" x2="1095" y1="257.9824" y2="257.9824"/><line style="stroke:#27AE60;stroke-width:1.0;" x1="23" x2="1095" y1="265.9824" y2="265.9824"/><ellipse cx="33" cy="280.793" fill="#84BE84" rx="3" ry="3" style="stroke:#038048;stroke-width:1.0;"/><text fill="#000000" font-family="sans-serif" font-size="14" lengthAdjust="spacing" text-decoration="underline" textLength="273" x="42" y="285.0898">LegacySamExtensionService getInstance ()</text><text fill="#000000" font-family="sans-serif" font-size="14" lengthAdjust="spacing" textLength="4" x="42" y="303.7109">&#160;</text><ellipse cx="33" cy="318.0352" fill="#84BE84" rx="3" ry="3" style="stroke:#038048;stroke-width:1.0;"/><text fill="#0000FF" font-family="sans-serif" font-size="14" lengthAdjust="spacing" textLength="222" x="42" y="322.332">ContextSetting getContextSetting ()</text><text fill="#000000" font-family="sans-serif" font-size="14" lengthAdjust="spacing" textLength="4" x="42" y="340.9531">&#160;</text><ellipse cx="33" cy="355.2773" fill="#84BE84" rx="3" ry="3" style="stroke:#038048;stroke-width:1.0;"/><text fill="#000000" filter="url(#b5ffb906vc0pe0)" font-family="sans-serif" font-size="14" lengthAdjust="spacing" textLength="142" x="42" y="359.5742">LegacySamApiFactory</text><text fill="#000000" font-family="sans-serif" font-size="14" lengthAdjust="spacing" textLength="176" x="188" y="359.5742">getLegacySamApiFactory ()</text><text fill="#000000" font-family="sans-serif" font-size="14" lengthAdjust="spacing" textLength="4" x="42" y="378.1953">&#160;</text><ellipse cx="33" cy="392.5195" fill="#84BE84" rx="3" ry="3" style="stroke:#038048;stroke-width:1.0;"/><text fill="#000000" filter="url(#b5ffb906vc0pe2)" font-family="sans-serif" font-size="14" lengthAdjust="spacing" textLength="193" x="42" y="396.8164">CardResourceProfileExtension</text><text fill="#000000" font-family="sans-serif" font-size="14" lengthAdjust="spacing" textLength="285" x="239" y="396.8164">createLegacySamResourceProfileExtension (</text><text fill="#0000FF" filter="url(#b5ffb906vc0pe0)" font-family="sans-serif" font-size="14" lengthAdjust="spacing" textLength="193" x="524" y="396.8164">LegacySamSelectionExtension</text><text fill="#000000" font-family="sans-serif" font-size="14" lengthAdjust="spacing" textLength="193" x="721" y="396.8164">legacySamSelectionExtension)</text><ellipse cx="33" cy="411.1406" fill="#84BE84" rx="3" ry="3" style="stroke:#038048;stroke-width:1.0;"/><text fill="#0000FF" filter="url(#b5ffb906vc0pe2)" font-family="sans-serif" font-size="14" lengthAdjust="spacing" textLength="193" x="42" y="415.4375">CardResourceProfileExtension</text><text fill="#0000FF" font-family="sans-serif" font-size="14" lengthAdjust="spacing" textLength="285" x="239" y="415.4375">createLegacySamResourceProfileExtension (</text><text fill="#0000FF" filter="url(#b5ffb906vc0pe0)" font-family="sans-serif" font-size="14" lengthAdjust="spacing" textLength="193" x="524" y="415.4375">LegacySamSelectionExtension</text><text fill="#0000FF" font-family="sans-serif" font-size="14" lengthAdjust="spacing" textLength="369" x="721" y="415.4375">legacySamSelectionExtension, String powerOnDataRegex)</text><text fill="#000000" font-family="sans-serif" font-size="14" lengthAdjust="spacing" textLength="4" x="42" y="434.0586">&#160;</text><ellipse cx="33" cy="471.0039" fill="#84BE84" rx="3" ry="3" style="stroke:#038048;stroke-width:1.0;"/><text fill="#000000" font-family="sans-serif" font-size="14" lengthAdjust="spacing" textLength="199" x="42" y="475.3008">String getCommonApiVersion ()</text><ellipse cx="33" cy="489.625" fill="#84BE84" rx="3" ry="3" style="stroke:#038048;stroke-width:1.0;"/><text fill="#000000" font-family="sans-serif" font-size="14" lengthAdjust="spacing" textLength="190" x="42" y="493.9219">String getReaderApiVersion ()</text><ellipse cx="33" cy="508.2461" fill="#84BE84" rx="3" ry="3" style="stroke:#038048;stroke-width:1.0;"/><text fill="#000000" font-family="sans-serif" font-size="14" lengthAdjust="spacing" textLength="174" x="42" y="512.543">String getCardApiVersion ()</text><line style="stroke:#27AE60;stroke-width:1.0;" x1="23" x2="483.5" y1="450.8828" y2="450.8828"/><text fill="#000000" font-family="sans-serif" font-size="14" font-weight="bold" lengthAdjust="spacing" textLength="151" x="483.5" y="456.1797">KeypleCardExtension</text><line style="stroke:#27AE60;stroke-width:1.0;" x1="634.5" x2="1095" y1="450.8828" y2="450.8828"/></g><!--class ContextSetting--><g id="elem_ContextSetting"><rect codeLine="78" fill="#FEFECE" height="66.6211" id="ContextSetting" rx="2.5" ry="2.5" style="stroke:#D4AC0D;stroke-width:2.0;" width="481" x="318.5" y="598.7402"/><ellipse cx="503.25" cy="614.7402" fill="#B4A7E5" rx="11" ry="11" style="stroke:#181818;stroke-width:1.0;"/><path d="M504.2031,611.3809 L504.2031,618.0371 L505.9219,618.0371 Q506.5313,618.0371 506.7969,618.2715 Q507.0625,618.5059 507.0625,618.8965 Q507.0625,619.2715 506.7969,619.5059 Q506.5313,619.7402 505.9219,619.7402 L500.7813,619.7402 Q500.1719,619.7402 499.9063,619.5059 Q499.6406,619.2715 499.6406,618.8809 Q499.6406,618.5059 499.9063,618.2715 Q500.1719,618.0371 500.7813,618.0371 L502.5,618.0371 L502.5,611.3809 L500.7813,611.3809 Q500.1719,611.3809 499.9063,611.1465 Q499.6406,610.9121 499.6406,610.5215 Q499.6406,610.1465 499.9063,609.9121 Q500.1719,609.6777 500.7813,609.6777 L505.9219,609.6777 Q506.5313,609.6777 506.7969,609.9121 Q507.0625,610.1465 507.0625,610.5215 Q507.0625,610.9121 506.7969,611.1465 Q506.5313,611.3809 505.9219,611.3809 L504.2031,611.3809 Z " fill="#000000"/><ellipse cx="528.75" cy="614.2402" fill="#84BE84" rx="3" ry="3" style="stroke:#038048;stroke-width:1.0;"/><text fill="#0000FF" font-family="sans-serif" font-size="14" font-style="italic" lengthAdjust="spacing" textLength="92" x="534.75" y="620.5371">ContextSetting</text><line style="stroke:#D4AC0D;stroke-width:2.0;" x1="319.5" x2="798.5" y1="630.7402" y2="630.7402"/><line style="stroke:#D4AC0D;stroke-width:2.0;" x1="319.5" x2="798.5" y1="638.7402" y2="638.7402"/><ellipse cx="329.5" cy="653.5508" fill="#84BE84" rx="3" ry="3" style="stroke:#038048;stroke-width:1.0;"/><text fill="#0000FF" font-family="sans-serif" font-size="14" lengthAdjust="spacing" textLength="455" x="338.5" y="657.8477">ContextSetting setContactReaderPayloadCapacity (int payloadCapacity)</text></g><!--class LegacySamUtil--><g id="elem_LegacySamUtil"><rect codeLine="81" fill="#E9F7EF" height="66.6211" id="LegacySamUtil" rx="2.5" ry="2.5" style="stroke:#27AE60;stroke-width:2.0;" width="646" x="236" y="726.7402"/><ellipse cx="485.75" cy="742.7402" fill="#ADD1B2" rx="11" ry="11" style="stroke:#181818;stroke-width:1.0;"/><path d="M488.5156,738.6152 Q488.6719,738.3965 488.8594,738.2871 Q489.0469,738.1777 489.2656,738.1777 Q489.6406,738.1777 489.875,738.4434 Q490.1094,738.6934 490.1094,739.3027 L490.1094,740.7559 Q490.1094,741.3652 489.875,741.6309 Q489.6406,741.8965 489.2656,741.8965 Q488.9219,741.8965 488.7188,741.6934 Q488.5156,741.5059 488.4063,740.9902 Q488.3594,740.6309 488.1719,740.4434 Q487.8438,740.0684 487.2344,739.8496 Q486.625,739.6309 486,739.6309 Q485.2344,739.6309 484.5938,739.959 Q483.9688,740.2871 483.4688,741.0371 Q482.9844,741.7871 482.9844,742.8184 L482.9844,743.9121 Q482.9844,745.1465 483.875,745.9746 Q484.7656,746.7871 486.3594,746.7871 Q487.2969,746.7871 487.9531,746.5371 Q488.3438,746.3809 488.7656,745.9434 Q489.0313,745.6777 489.1719,745.5996 Q489.3281,745.5215 489.5313,745.5215 Q489.8594,745.5215 490.1094,745.7871 Q490.375,746.0371 490.375,746.3809 Q490.375,746.7246 490.0313,747.1309 Q489.5313,747.709 488.7344,748.0371 Q487.6563,748.4902 486.3594,748.4902 Q484.8438,748.4902 483.6406,747.8652 Q482.6563,747.3652 481.9688,746.3027 Q481.2813,745.2246 481.2813,743.9434 L481.2813,742.7871 Q481.2813,741.459 481.8906,740.3184 Q482.5156,739.1621 483.6094,738.5527 Q484.7031,737.9277 485.9375,737.9277 Q486.6719,737.9277 487.3125,738.0996 Q487.9688,738.2559 488.5156,738.6152 Z " fill="#000000"/><ellipse cx="511.25" cy="742.2402" fill="#84BE84" rx="3" ry="3" style="stroke:#038048;stroke-width:1.0;"/><text fill="#000000" font-family="sans-serif" font-size="14" font-weight="bold" lengthAdjust="spacing" textLength="30" x="517.25" y="748.5371">final</text><text fill="#000000" font-family="sans-serif" font-size="14" lengthAdjust="spacing" textLength="93" x="551.25" y="748.5371">LegacySamUtil</text><line style="stroke:#27AE60;stroke-width:2.0;" x1="237" x2="881" y1="758.7402" y2="758.7402"/><line style="stroke:#27AE60;stroke-width:2.0;" x1="237" x2="881" y1="766.7402" y2="766.7402"/><ellipse cx="247" cy="781.5508" fill="#84BE84" rx="3" ry="3" style="stroke:#038048;stroke-width:1.0;"/><text fill="#000000" font-family="sans-serif" font-size="14" lengthAdjust="spacing" text-decoration="underline" textLength="200" x="256" y="785.8477">String buildPowerOnDataFilter (</text><text fill="#000000" filter="url(#b5ffb906vc0pe0)" font-family="sans-serif" font-size="14" lengthAdjust="spacing" text-decoration="underline" textLength="159" x="456" y="785.8477">LegacySam.ProductType</text><text fill="#000000" font-family="sans-serif" font-size="14" lengthAdjust="spacing" text-decoration="underline" textLength="257" x="619" y="785.8477">productType, String serialNumberRegex)</text></g><!--link LegacySamExtensionService to ContextSetting--><g id="link_LegacySamExtensionService_ContextSetting"><path codeLine="88" d="M559,520.0082 C559,547.2552 559,573.2702 559,593.2812 " fill="none" id="LegacySamExtensionService-to-ContextSetting" style="stroke:#27AE60;stroke-width:2.0;stroke-dasharray:7.0,7.0;"/><polygon fill="#27AE60" points="559,598.4992,563,589.4992,559,593.4992,555,589.4992,559,598.4992" style="stroke:#27AE60;stroke-width:2.0;"/><polygon fill="#000000" points="564,564.3857,566.9389,555.3407,561.0611,555.3407,564,564.3857" style="stroke:#000000;stroke-width:1.0;"/><text fill="#000000" font-family="sans-serif" font-size="13" lengthAdjust="spacing" textLength="21" x="573" y="564.7686">use</text></g><!--link ContextSetting to LegacySamUtil--><!--SRC=[lLVVR-8u47xdh_2r3zlIIze2NGfYaKBYx5RRQwj2JwhkJfL93FXguiXsIgEg__jDVW19ci8-7G_8JBwPppF-PXmqqvms47n-qZZa51deELqO7f4-VF4uLCBmP1ngON0w9rwioDBubxmGWxCfuC_CZdc2ZbfdhRPnrZFEUySD6lX8fv4RNz2tRsZo0_-1OG4_RH5n6ac5c58HLSYdg8yMMeUgVtgwq4lk2Iwa9togJ4yiJsVoL9CffoGoVDXKvbrZWgLYyy08ET6dZTzyEcC1HVRJztlyU8xSIxVdzYhc5d9RRjljLCnjX2zm5rVH7UHqdP7ZLCmNoBPirsbLp5_HoB7RThTWlhww-OdQdTwbCofO7yOOjReM_dgMrCemq5Z77EgY5qGZNmHVD5e9-OnMJ2zGG5VeXKh5H834346kWOwM7DmQwfa58P5aYPIcaWeTXzGQ2UbJQISLHOTMpx4TjnPuLGAEEbONNzG2xN94npaVjMg1k0J4eruRgDFyy8sJxBVWPNEYL8QVB9Zt752bK36i9QLO5Hz1f4VAkLXzY4AyvxaKKU3dp2vsiOthoNA8qx7iCmT2tbD_Jxp1G59_E8Im3dQmlIFi1ecx7T11Oy50w6lZjap0UXT9QBUzn64AIxaxs7QxExctu4lSwLZEcdvZB-rWogFz_0aepMVaNhYZdUnhQAxrd3ktbfY_Iqg3lTJp19LozzmkTdToRx1vJ-NaQtELFVuLyZZbja17U1zt2ctPRNnHf8xBpDbCj6zl9lXcaav5cAlfo1HXEegVdjA82cNsfoVKJ-rDU89V8L10EBBkhf2aCuWQU5HjCKqqc48IVSxc2vtbtMmcCrs4UyOv2LcpEJXDl8VbM5vCrb6Icq4iboBOvoCa2UPqwwMeV64UDIHL8fAmM5yXM_-a1bdAZKO85ZAdw438kKazpa95pIoKcLnDPfwBcULYRd8vG2GjNFOBlQMxEl6Iqq87Wq4XeUp6io5OKjGWcQhvJeR3luD1UX7rKzascp2j2OVShjF0OxBSk8opl5BQJvyM99XjAFd055mlJzwK9ffvxpj2pAc-2W06nusEZXjRt-9ERH5e-gh7L6iMp1EVYgNiMLNAXjqAcKiyBMISboG9LVEqBbv-yabXx_F3lfDYnZYjrXbvaX9DDt4_WwEZ3pij9htn7rDEFGqE1Q8KDrmJyi-Xn_KL_Hzpsfd7tlt_3gyECZdYKAoel0qSeiazTDDhuOJW_cqsQtGFoYwgCG-KgYVfTJZlF_FNZgFZEjWz9J07zy8Ipe-Wzwn56UXKpWYe- -1pHQTjLf7qso-rWifQ0MIRRVQEn5mGtoOmQPW68GC_2il6qlxo4L8p2nuqu-N-JoorFRzjzBmgquXn_svxOYxZK8PTuZ11INxawGdS9MjPX5lJHWOmS1dXDz5oIcMkWooRz-G6ifGI7YE9WbIZyVdKCSrXjTw7sLjh7qMAec5-dLrRZxSFsMrMWHj_mKteq-0VeroVt74yURpE_XkiH_vsU1-ktz_VtXl_0G00]--></g></svg>