<?xml version="1.0" encoding="UTF-8" standalone="no"?><svg xmlns="http://www.w3.org/2000/svg" xmlns:xlink="http://www.w3.org/1999/xlink" contentStyleType="text/css" height="561px" preserveAspectRatio="none" style="width:821px;height:561px;background:#FFFFFF;" version="1.1" viewBox="0 0 821 561" width="821px" zoomAndPan="magnify"><defs><filter height="1" id="bqimdbas7kkf60" width="1" x="0" y="0"><feFlood flood-color="#90EE90" result="flood"/><feComposite in="SourceGraphic" in2="flood" operator="over"/></filter><filter height="1" id="bqimdbas7kkf61" width="1" x="0" y="0"><feFlood flood-color="#00FFFF" result="flood"/><feComposite in="SourceGraphic" in2="flood" operator="over"/></filter><filter height="1" id="bqimdbas7kkf62" width="1" x="0" y="0"><feFlood flood-color="#FFA500" result="flood"/><feComposite in="SourceGraphic" in2="flood" operator="over"/></filter></defs><g><text fill="#000000" font-family="sans-serif" font-size="14" font-weight="bold" lengthAdjust="spacing" textLength="517" x="145" y="25.1074">Keyple - keyple-card-calypso-crypto-legacysam-java-lib - 0.3.+ (2023-02-13)</text><rect fill="#DDDDDD" height="103.1055" id="_legend" rx="7.5" ry="7.5" style="stroke:#000000;stroke-width:1.0;" width="409" x="199" y="51.6211"/><text fill="#000000" font-family="sans-serif" font-size="14" lengthAdjust="spacing" text-decoration="underline" textLength="88" x="204" y="71.7285">Colors legend</text><text fill="#000000" font-family="sans-serif" font-size="14" lengthAdjust="spacing" textLength="4" x="296" y="71.7285">:</text><ellipse cx="209.5" cy="86.3633" fill="#000000" rx="2.5" ry="2.5" style="stroke:#000000;stroke-width:0.0;"/><text fill="#000000" font-family="sans-serif" font-size="14" lengthAdjust="spacing" text-decoration="underline" textLength="148" x="216" y="90.3496">External API references</text><text fill="#000000" font-family="sans-serif" font-size="14" lengthAdjust="spacing" textLength="4" x="368" y="90.3496">:</text><rect fill="#000000" height="3.5" style="stroke:#000000;stroke-width:0.0;" width="3.5" x="213" y="102.4844"/><text fill="#000000" filter="url(#bqimdbas7kkf60)" font-family="sans-serif" font-size="14" font-weight="bold" lengthAdjust="spacing" textLength="383" x="220" y="108.9707">calypsonet-terminal-calypso-crypto-legacysam-java-api</text><rect fill="#000000" height="3.5" style="stroke:#000000;stroke-width:0.0;" width="3.5" x="213" y="121.1055"/><text fill="#000000" filter="url(#bqimdbas7kkf61)" font-family="sans-serif" font-size="14" font-weight="bold" lengthAdjust="spacing" textLength="170" x="220" y="127.5918">keyple-common-java-api</text><rect fill="#000000" height="3.5" style="stroke:#000000;stroke-width:0.0;" width="3.5" x="213" y="139.7266"/><text fill="#000000" filter="url(#bqimdbas7kkf62)" font-family="sans-serif" font-size="14" font-weight="bold" lengthAdjust="spacing" textLength="229" x="220" y="146.2129">keyple-service-resource-java-lib</text><!--cluster legacysam--><g id="cluster_legacysam"><path d="M8.5,173.7402 L355.5,173.7402 A3.75,3.75 0 0 1 358,176.2402 L365,198.3613 L811.5,198.3613 A2.5,2.5 0 0 1 814,200.8613 L814,552.2402 A2.5,2.5 0 0 1 811.5,554.7402 L8.5,554.7402 A2.5,2.5 0 0 1 6,552.2402 L6,176.2402 A2.5,2.5 0 0 1 8.5,173.7402 " fill="#F8F9F9" style="stroke:#000000;stroke-width:1.5;"/><line style="stroke:#000000;stroke-width:1.5;" x1="6" x2="365" y1="198.3613" y2="198.3613"/><text fill="#000000" font-family="sans-serif" font-size="14" font-weight="bold" lengthAdjust="spacing" textLength="346" x="10" y="190.8477">org.eclipse.keyple.card.calypso.crypto.legacysam</text></g><!--class LegacySamCardExtensionService--><g id="elem_LegacySamCardExtensionService"><rect codeLine="62" fill="#FEFECE" height="327.9375" id="LegacySamCardExtensionService" rx="2.5" ry="2.5" style="stroke:#D4AC0D;stroke-width:2.0;" width="776" x="22" y="210.7402"/><ellipse cx="276.75" cy="234.3613" fill="#ADD1B2" rx="11" ry="11" style="stroke:#181818;stroke-width:1.0;"/><path d="M279.5156,230.2363 Q279.6719,230.0176 279.8594,229.9082 Q280.0469,229.7988 280.2656,229.7988 Q280.6406,229.7988 280.875,230.0645 Q281.1094,230.3145 281.1094,230.9238 L281.1094,232.377 Q281.1094,232.9863 280.875,233.252 Q280.6406,233.5176 280.2656,233.5176 Q279.9219,233.5176 279.7188,233.3145 Q279.5156,233.127 279.4063,232.6113 Q279.3594,232.252 279.1719,232.0645 Q278.8438,231.6895 278.2344,231.4707 Q277.625,231.252 277,231.252 Q276.2344,231.252 275.5938,231.5801 Q274.9688,231.9082 274.4688,232.6582 Q273.9844,233.4082 273.9844,234.4395 L273.9844,235.5332 Q273.9844,236.7676 274.875,237.5957 Q275.7656,238.4082 277.3594,238.4082 Q278.2969,238.4082 278.9531,238.1582 Q279.3438,238.002 279.7656,237.5645 Q280.0313,237.2988 280.1719,237.2207 Q280.3281,237.1426 280.5313,237.1426 Q280.8594,237.1426 281.1094,237.4082 Q281.375,237.6582 281.375,238.002 Q281.375,238.3457 281.0313,238.752 Q280.5313,239.3301 279.7344,239.6582 Q278.6563,240.1113 277.3594,240.1113 Q275.8438,240.1113 274.6406,239.4863 Q273.6563,238.9863 272.9688,237.9238 Q272.2813,236.8457 272.2813,235.5645 L272.2813,234.4082 Q272.2813,233.0801 272.8906,231.9395 Q273.5156,230.7832 274.6094,230.1738 Q275.7031,229.5488 276.9375,229.5488 Q277.6719,229.5488 278.3125,229.7207 Q278.9688,229.877 279.5156,230.2363 Z " fill="#000000"/><ellipse cx="302.25" cy="233.8613" fill="#84BE84" rx="3" ry="3" style="stroke:#038048;stroke-width:1.0;"/><text fill="#000000" font-family="sans-serif" font-size="14" lengthAdjust="spacing" textLength="16" x="348.25" y="230.8477">&lt;&lt;</text><text fill="#000000" filter="url(#bqimdbas7kkf61)" font-family="sans-serif" font-size="14" lengthAdjust="spacing" textLength="135" x="364.25" y="230.8477">KeypleCardExtension</text><text fill="#000000" font-family="sans-serif" font-size="14" lengthAdjust="spacing" textLength="16" x="499.25" y="230.8477">&gt;&gt;</text><text fill="#000000" font-family="sans-serif" font-size="14" font-weight="bold" lengthAdjust="spacing" textLength="30" x="308.25" y="249.4688">final</text><text fill="#000000" font-family="sans-serif" font-size="14" lengthAdjust="spacing" textLength="213" x="342.25" y="249.4688">LegacySamCardExtensionService</text><line style="stroke:#D4AC0D;stroke-width:2.0;" x1="23" x2="797" y1="257.9824" y2="257.9824"/><line style="stroke:#D4AC0D;stroke-width:1.0;" x1="23" x2="797" y1="265.9824" y2="265.9824"/><ellipse cx="33" cy="280.793" fill="#84BE84" rx="3" ry="3" style="stroke:#038048;stroke-width:1.0;"/><text fill="#000000" font-family="sans-serif" font-size="14" lengthAdjust="spacing" text-decoration="underline" textLength="304" x="42" y="285.0898">LegacySamCardExtensionService getInstance ()</text><text fill="#000000" font-family="sans-serif" font-size="14" lengthAdjust="spacing" textLength="4" x="42" y="303.7109"> </text><ellipse cx="33" cy="318.0352" fill="#84BE84" rx="3" ry="3" style="stroke:#038048;stroke-width:1.0;"/><text fill="#000000" filter="url(#bqimdbas7kkf60)" font-family="sans-serif" font-size="14" lengthAdjust="spacing" textLength="180" x="42" y="322.332">LegacySamSelectionFactory</text><text fill="#000000" font-family="sans-serif" font-size="14" lengthAdjust="spacing" textLength="214" x="226" y="322.332">getLegacySamSelectionFactory ()</text><ellipse cx="33" cy="336.6563" fill="#84BE84" rx="3" ry="3" style="stroke:#038048;stroke-width:1.0;"/><text fill="#000000" filter="url(#bqimdbas7kkf62)" font-family="sans-serif" font-size="14" lengthAdjust="spacing" textLength="193" x="42" y="340.9531">CardResourceProfileExtension</text><text fill="#000000" font-family="sans-serif" font-size="14" lengthAdjust="spacing" textLength="285" x="239" y="340.9531">createLegacySamResourceProfileExtension (</text><text fill="#000000" filter="url(#bqimdbas7kkf60)" font-family="sans-serif" font-size="14" lengthAdjust="spacing" textLength="132" x="524" y="340.9531">LegacySamSelection</text><text fill="#000000" font-family="sans-serif" font-size="14" lengthAdjust="spacing" textLength="132" x="660" y="340.9531">legacySamSelection)</text><text fill="#000000" font-family="sans-serif" font-size="14" lengthAdjust="spacing" textLength="4" x="42" y="359.5742"> </text><ellipse cx="33" cy="373.8984" fill="#84BE84" rx="3" ry="3" style="stroke:#038048;stroke-width:1.0;"/><text fill="#008000" filter="url(#bqimdbas7kkf60)" font-family="sans-serif" font-size="14" lengthAdjust="spacing" textLength="160" x="42" y="378.1953">LSSecuritySettingFactory</text><text fill="#008000" font-family="sans-serif" font-size="14" lengthAdjust="spacing" textLength="173" x="206" y="378.1953">getSecuritySettingFactory()</text><text fill="#000000" font-family="sans-serif" font-size="14" lengthAdjust="spacing" textLength="4" x="42" y="396.8164"> </text><ellipse cx="33" cy="411.1406" fill="#84BE84" rx="3" ry="3" style="stroke:#038048;stroke-width:1.0;"/><text fill="#000000" filter="url(#bqimdbas7kkf60)" font-family="sans-serif" font-size="14" lengthAdjust="spacing" textLength="196" x="42" y="415.4375">LSTransactionManagerFactory</text><text fill="#000000" font-family="sans-serif" font-size="14" lengthAdjust="spacing" textLength="213" x="242" y="415.4375">getTransactionManagerFactory ()</text><ellipse cx="33" cy="429.7617" fill="#84BE84" rx="3" ry="3" style="stroke:#038048;stroke-width:1.0;"/><text fill="#000000" filter="url(#bqimdbas7kkf60)" font-family="sans-serif" font-size="14" lengthAdjust="spacing" textLength="159" x="42" y="434.0586">LSCommandDataFactory</text><text fill="#000000" font-family="sans-serif" font-size="14" lengthAdjust="spacing" textLength="176" x="205" y="434.0586">getCommandDataFactory ()</text><text fill="#000000" font-family="sans-serif" font-size="14" lengthAdjust="spacing" textLength="4" x="42" y="452.6797"> </text><ellipse cx="33" cy="489.625" fill="#84BE84" rx="3" ry="3" style="stroke:#038048;stroke-width:1.0;"/><text fill="#000000" font-family="sans-serif" font-size="14" lengthAdjust="spacing" textLength="199" x="42" y="493.9219">String getCommonApiVersion ()</text><ellipse cx="33" cy="508.2461" fill="#84BE84" rx="3" ry="3" style="stroke:#038048;stroke-width:1.0;"/><text fill="#000000" font-family="sans-serif" font-size="14" lengthAdjust="spacing" textLength="190" x="42" y="512.543">String getReaderApiVersion ()</text><ellipse cx="33" cy="526.8672" fill="#84BE84" rx="3" ry="3" style="stroke:#038048;stroke-width:1.0;"/><text fill="#000000" font-family="sans-serif" font-size="14" lengthAdjust="spacing" textLength="174" x="42" y="531.1641">String getCardApiVersion ()</text><line style="stroke:#D4AC0D;stroke-width:1.0;" x1="23" x2="334.5" y1="469.5039" y2="469.5039"/><text fill="#000000" font-family="sans-serif" font-size="14" font-weight="bold" lengthAdjust="spacing" textLength="151" x="334.5" y="474.8008">KeypleCardExtension</text><line style="stroke:#D4AC0D;stroke-width:1.0;" x1="485.5" x2="797" y1="469.5039" y2="469.5039"/></g><!--SRC=[ZLPTRzfA47tthvYRFZGbCYH0Ia0qah7NRTGqZM9QALAbQ6CFu9jbrzfTacj5-Uzt_GKO29G7j1wVEMTcTdRMEjOCBJ2_xvWc3C66ftnXXrH6ve-bYH9sADD42vlXb8QfedFxN_fCRHO_6lnfizCyWUFsQRjZdxRjiyud2ta4EcUsFiANBp3-HduGip2FhbWmN4W5iL8BL10X362cTQ86hTPCpraec92XY50rGp5lJMHBqqU6T6579gZ2UuV9B5KyvNR2g6vP_qGuYJc2-_3rZjoVWN_Xz_t-XhaDVjll-DqDSmV8EUcHJNGNl9utyhmDypcuZkjxxGtpPnXvRiVjhPclhsw-GwVRl_16QzPV0O5spo6VJxDQsJO4EcMcBdf6DKI2VzJm8kGJlCHw1XnVu1cbYWK7CG6JAzUBEJDkbdgAUK8bdOFIA57eD45d96I4qiqg2X-SlkTw_axWLGquwZezShuJwDOPFUzirDu993KW6VKxHZhFZznuMRnhNYwZIXNuyImEdpWg1UkqZfJYPVsLORf7niJB5WiDdwPIB7XKAll49oxPBLP2lAxZddg6yWwZ0tp3eSJeyjBGUiGZxXxQ9PBqkgOFh5bi6hqohifaL6yNqXotWy993ikrkyJrUtkrL-0BqkqwNYM_jDSYU6IBm_ePACzdv9_xextg5RJizLAxjDQKlqf4Vb1wcg5oxRxV8_vUxIMsF5EbU6NUL4__HZpDjHtJH-IGTWvjknrolYwTrfMBcUZ-l1cJct4-5SrSpKUcIF9H_F2GCoeex0yFCCZj3VE6_6U8E6NWt5w1n8bXvI6g5QO1mqUJn835qvakycuqoZdEKTl6VHuRWWEpdIPnep5iPLINTU8mfHbbTKs8-LpmGpv2KZx5bPT2-Ho7Q4jKOY7DehfFLlvPGOhyBIin5Zf5E19osiIGnOd2Pa7LpEwfPfbBiyYbkSpb26XUnU89NlEeJi9iw-1eE5nBgBZ-N4EMLPXd8xQCvFBo3syq9bdDJ3xNELb0vpLeKEIJo-r5b25aFpC4g-N9gz9Kn-7R0USfwYjke6R7uVYJjVBVsl8bJu0CGsquV1fg8TCogOpgNKp6lK5TRc0MrLsvPxTIJ6A6c-M2K2BLk2H_3mx7Vn5qnScstjIopxyP1WN9DciGOBYGiKu3r3hcq-rAx0OSg70mDZLHD8_c1-McF-KsyxkO7JMkaRlcN54UULJJRTRjbxLsCBTiex6ZeKtxhZTTeAL9jk8Jt4dYt-N7nNfmAzWTKZFj3i8opMtGc_MMJJv7AH76D2k8AYVXjNF_yrSn2FFdO7n_NNmjLkT-TO8_L5zqhs_M_m00]--></g></svg>