<svg xmlns="http://www.w3.org/2000/svg" xmlns:xlink="http://www.w3.org/1999/xlink" contentStyleType="text/css" height="797px" preserveAspectRatio="none" style="width:653px;height:797px;background:#FFFFFF;" version="1.1" viewBox="0 0 653 797" width="653px" zoomAndPan="magnify"><title>Keyple - keyple-plugin-storagecard-java-api - 1.0.+ (2025-02-21)</title><defs/><g><text fill="#000000" font-family="sans-serif" font-size="14" font-weight="bold" lengthAdjust="spacing" textLength="418.9883" x="110.0059" y="25.1074">Keyple - keyple-plugin-storagecard-java-api - 1.0.+ (2025-02-21)</text><!--cluster api--><g id="cluster_api"><path d="M8.5,45.6348 L294.2646,45.6348 A3.75,3.75 0 0 1 296.7646,48.1348 L303.7646,70.2559 L643.5,70.2559 A2.5,2.5 0 0 1 646,72.7559 L646,788.1348 A2.5,2.5 0 0 1 643.5,790.6348 L8.5,790.6348 A2.5,2.5 0 0 1 6,788.1348 L6,48.1348 A2.5,2.5 0 0 1 8.5,45.6348 " fill="#F8F9F9" style="stroke:#000000;stroke-width:1.5;"/><line style="stroke:#000000;stroke-width:1.5;" x1="6" x2="303.7646" y1="70.2559" y2="70.2559"/><text fill="#000000" font-family="sans-serif" font-size="14" font-weight="bold" lengthAdjust="spacing" textLength="284.7646" x="10" y="62.7422">org.eclipse.keyple.core.plugin.storagecard</text></g><!--cluster internal--><g id="cluster_internal"><path d="M32.5,196.6348 L84.0654,196.6348 A3.75,3.75 0 0 1 86.5654,199.1348 L93.5654,221.2559 L619.5,221.2559 A2.5,2.5 0 0 1 622,223.7559 L622,764.1348 A2.5,2.5 0 0 1 619.5,766.6348 L32.5,766.6348 A2.5,2.5 0 0 1 30,764.1348 L30,199.1348 A2.5,2.5 0 0 1 32.5,196.6348 " fill="#F2F3F4" style="stroke:#000000;stroke-width:1.5;"/><line style="stroke:#000000;stroke-width:1.5;" x1="30" x2="93.5654" y1="221.2559" y2="221.2559"/><text fill="#000000" font-family="sans-serif" font-size="14" font-weight="bold" lengthAdjust="spacing" textLength="50.5654" x="34" y="213.7422">internal</text></g><!--cluster spi--><g id="cluster_spi"><path d="M56.5,241.6348 L77.7275,241.6348 A3.75,3.75 0 0 1 80.2275,244.1348 L87.2275,266.2559 L595.5,266.2559 A2.5,2.5 0 0 1 598,268.7559 L598,542.1348 A2.5,2.5 0 0 1 595.5,544.6348 L56.5,544.6348 A2.5,2.5 0 0 1 54,542.1348 L54,244.1348 A2.5,2.5 0 0 1 56.5,241.6348 " fill="#E5E7E9" style="stroke:#000000;stroke-width:1.5;"/><line style="stroke:#000000;stroke-width:1.5;" x1="54" x2="87.2275" y1="266.2559" y2="266.2559"/><text fill="#000000" font-family="sans-serif" font-size="14" font-weight="bold" lengthAdjust="spacing" textLength="20.2275" x="58" y="258.7422">spi</text></g><!--class ApiProperties--><g id="elem_ApiProperties"><rect codeLine="54" fill="#E9F7EF" height="66.6211" id="ApiProperties" rx="2.5" ry="2.5" style="stroke:#27AE60;stroke-width:2.0;" width="278.0059" x="352" y="82.6348"/><ellipse cx="367" cy="98.6348" fill="#ADD1B2" rx="11" ry="11" style="stroke:#181818;stroke-width:1.0;"/><path d="M369.7656,94.5098 Q369.9219,94.291 370.1094,94.1816 Q370.2969,94.0723 370.5156,94.0723 Q370.8906,94.0723 371.125,94.3379 Q371.3594,94.5879 371.3594,95.1973 L371.3594,96.6504 Q371.3594,97.2598 371.125,97.5254 Q370.8906,97.791 370.5156,97.791 Q370.1719,97.791 369.9688,97.5879 Q369.7656,97.4004 369.6563,96.8848 Q369.6094,96.5254 369.4219,96.3379 Q369.0938,95.9629 368.4844,95.7441 Q367.875,95.5254 367.25,95.5254 Q366.4844,95.5254 365.8438,95.8535 Q365.2188,96.1816 364.7188,96.9316 Q364.2344,97.6816 364.2344,98.7129 L364.2344,99.8066 Q364.2344,101.041 365.125,101.8691 Q366.0156,102.6816 367.6094,102.6816 Q368.5469,102.6816 369.2031,102.4316 Q369.5938,102.2754 370.0156,101.8379 Q370.2813,101.5723 370.4219,101.4941 Q370.5781,101.416 370.7813,101.416 Q371.1094,101.416 371.3594,101.6816 Q371.625,101.9316 371.625,102.2754 Q371.625,102.6191 371.2813,103.0254 Q370.7813,103.6035 369.9844,103.9316 Q368.9063,104.3848 367.6094,104.3848 Q366.0938,104.3848 364.8906,103.7598 Q363.9063,103.2598 363.2188,102.1973 Q362.5313,101.1191 362.5313,99.8379 L362.5313,98.6816 Q362.5313,97.3535 363.1406,96.2129 Q363.7656,95.0566 364.8594,94.4473 Q365.9531,93.8223 367.1875,93.8223 Q367.9219,93.8223 368.5625,93.9941 Q369.2188,94.1504 369.7656,94.5098 Z " fill="#000000"/><ellipse cx="386" cy="98.1348" fill="#84BE84" rx="3" ry="3" style="stroke:#038048;stroke-width:1.0;"/><text fill="#000000" font-family="sans-serif" font-size="14" font-weight="bold" lengthAdjust="spacing" textLength="28.7793" x="392" y="104.4316">final</text><text fill="#000000" font-family="sans-serif" font-size="14" lengthAdjust="spacing" textLength="202.3369" x="424.6689" y="104.4316">PluginStorageCardApiProperties</text><line style="stroke:#27AE60;stroke-width:2.0;" x1="353" x2="629.0059" y1="114.6348" y2="114.6348"/><ellipse cx="363" cy="129.4453" fill="none" rx="3" ry="3" style="stroke:#038048;stroke-width:1.0;"/><text fill="#000000" font-family="sans-serif" font-size="14" font-weight="bold" lengthAdjust="spacing" text-decoration="underline" textLength="28.7793" x="372" y="133.7422">final</text><text fill="#000000" font-family="sans-serif" font-size="14" lengthAdjust="spacing" text-decoration="underline" textLength="103.4756" x="404.6689" y="133.7422">String VERSION</text><line style="stroke:#27AE60;stroke-width:2.0;" x1="353" x2="629.0059" y1="141.2559" y2="141.2559"/></g><!--class ApduInterpreterFactory--><g id="elem_ApduInterpreterFactory"><rect codeLine="57" fill="#FDEDEC" height="48" id="ApduInterpreterFactory" rx="2.5" ry="2.5" style="stroke:#E74C3C;stroke-width:2.0;" width="186.958" x="129.5" y="92.1348"/><ellipse cx="144.5" cy="108.1348" fill="#B4A7E5" rx="11" ry="11" style="stroke:#181818;stroke-width:1.0;"/><path d="M145.4531,104.7754 L145.4531,111.4316 L147.1719,111.4316 Q147.7813,111.4316 148.0469,111.666 Q148.3125,111.9004 148.3125,112.291 Q148.3125,112.666 148.0469,112.9004 Q147.7813,113.1348 147.1719,113.1348 L142.0313,113.1348 Q141.4219,113.1348 141.1563,112.9004 Q140.8906,112.666 140.8906,112.2754 Q140.8906,111.9004 141.1563,111.666 Q141.4219,111.4316 142.0313,111.4316 L143.75,111.4316 L143.75,104.7754 L142.0313,104.7754 Q141.4219,104.7754 141.1563,104.541 Q140.8906,104.3066 140.8906,103.916 Q140.8906,103.541 141.1563,103.3066 Q141.4219,103.0723 142.0313,103.0723 L147.1719,103.0723 Q147.7813,103.0723 148.0469,103.3066 Q148.3125,103.541 148.3125,103.916 Q148.3125,104.3066 148.0469,104.541 Q147.7813,104.7754 147.1719,104.7754 L145.4531,104.7754 Z " fill="#000000"/><ellipse cx="163.5" cy="107.6348" fill="#84BE84" rx="3" ry="3" style="stroke:#038048;stroke-width:1.0;"/><text fill="#000000" font-family="sans-serif" font-size="14" font-style="italic" lengthAdjust="spacing" textLength="143.958" x="169.5" y="113.9316">ApduInterpreterFactory</text><line style="stroke:#E74C3C;stroke-width:2.0;" x1="130.5" x2="315.458" y1="124.1348" y2="124.1348"/><line style="stroke:#E74C3C;stroke-width:2.0;" x1="130.5" x2="315.458" y1="132.1348" y2="132.1348"/></g><!--class CommandProcessorApi--><g id="elem_CommandProcessorApi"><rect codeLine="60" fill="#FEFECE" height="141.1055" id="CommandProcessorApi" rx="2.5" ry="2.5" style="stroke:#D4AC0D;stroke-width:2.0;" width="304.5645" x="173.5" y="609.6348"/><ellipse cx="242.1152" cy="625.6348" fill="#B4A7E5" rx="11" ry="11" style="stroke:#181818;stroke-width:1.0;"/><path d="M243.0684,622.2754 L243.0684,628.9316 L244.7871,628.9316 Q245.3965,628.9316 245.6621,629.166 Q245.9277,629.4004 245.9277,629.791 Q245.9277,630.166 245.6621,630.4004 Q245.3965,630.6348 244.7871,630.6348 L239.6465,630.6348 Q239.0371,630.6348 238.7715,630.4004 Q238.5059,630.166 238.5059,629.7754 Q238.5059,629.4004 238.7715,629.166 Q239.0371,628.9316 239.6465,628.9316 L241.3652,628.9316 L241.3652,622.2754 L239.6465,622.2754 Q239.0371,622.2754 238.7715,622.041 Q238.5059,621.8066 238.5059,621.416 Q238.5059,621.041 238.7715,620.8066 Q239.0371,620.5723 239.6465,620.5723 L244.7871,620.5723 Q245.3965,620.5723 245.6621,620.8066 Q245.9277,621.041 245.9277,621.416 Q245.9277,621.8066 245.6621,622.041 Q245.3965,622.2754 244.7871,622.2754 L243.0684,622.2754 Z " fill="#000000"/><ellipse cx="267.6152" cy="625.1348" fill="#84BE84" rx="3" ry="3" style="stroke:#038048;stroke-width:1.0;"/><text fill="#000000" font-family="sans-serif" font-size="14" font-style="italic" lengthAdjust="spacing" textLength="147.834" x="273.6152" y="631.4316">CommandProcessorApi</text><line style="stroke:#D4AC0D;stroke-width:2.0;" x1="174.5" x2="477.0645" y1="641.6348" y2="641.6348"/><line style="stroke:#D4AC0D;stroke-width:2.0;" x1="174.5" x2="477.0645" y1="649.6348" y2="649.6348"/><ellipse cx="184.5" cy="664.4453" fill="#84BE84" rx="3" ry="3" style="stroke:#038048;stroke-width:1.0;"/><text fill="#000000" font-family="sans-serif" font-size="14" lengthAdjust="spacing" textLength="217.8887" x="193.5" y="668.7422">byte[] transmitIsoApdu(byte[] apdu)</text><text fill="#000000" font-family="sans-serif" font-size="14" lengthAdjust="spacing" textLength="3.8896" x="193.5" y="687.3633">&#160;</text><ellipse cx="184.5" cy="701.6875" fill="#84BE84" rx="3" ry="3" style="stroke:#038048;stroke-width:1.0;"/><text fill="#000000" font-family="sans-serif" font-size="14" lengthAdjust="spacing" textLength="91.0273" x="193.5" y="705.9844">byte[] getUID()</text><ellipse cx="184.5" cy="720.3086" fill="#84BE84" rx="3" ry="3" style="stroke:#038048;stroke-width:1.0;"/><text fill="#000000" font-family="sans-serif" font-size="14" lengthAdjust="spacing" textLength="277.0264" x="193.5" y="724.6055">byte[] readBlock(int blockAddress, int length)</text><ellipse cx="184.5" cy="738.9297" fill="#84BE84" rx="3" ry="3" style="stroke:#038048;stroke-width:1.0;"/><text fill="#000000" font-family="sans-serif" font-size="14" lengthAdjust="spacing" textLength="278.5645" x="193.5" y="743.2266">void writeBlock(int blockAddress, byte[] data)</text></g><!--class ApduInterpreterFactorySpi--><g id="elem_ApduInterpreterFactorySpi"><rect codeLine="68" fill="#FDEDEC" height="66.6211" id="ApduInterpreterFactorySpi" rx="2.5" ry="2.5" style="stroke:#E74C3C;stroke-width:2.0;" width="292.9229" x="140.5" y="278.6348"/><ellipse cx="195.1152" cy="294.6348" fill="#B4A7E5" rx="11" ry="11" style="stroke:#181818;stroke-width:1.0;"/><path d="M196.0684,291.2754 L196.0684,297.9316 L197.7871,297.9316 Q198.3965,297.9316 198.6621,298.166 Q198.9277,298.4004 198.9277,298.791 Q198.9277,299.166 198.6621,299.4004 Q198.3965,299.6348 197.7871,299.6348 L192.6465,299.6348 Q192.0371,299.6348 191.7715,299.4004 Q191.5059,299.166 191.5059,298.7754 Q191.5059,298.4004 191.7715,298.166 Q192.0371,297.9316 192.6465,297.9316 L194.3652,297.9316 L194.3652,291.2754 L192.6465,291.2754 Q192.0371,291.2754 191.7715,291.041 Q191.5059,290.8066 191.5059,290.416 Q191.5059,290.041 191.7715,289.8066 Q192.0371,289.5723 192.6465,289.5723 L197.7871,289.5723 Q198.3965,289.5723 198.6621,289.8066 Q198.9277,290.041 198.9277,290.416 Q198.9277,290.8066 198.6621,291.041 Q198.3965,291.2754 197.7871,291.2754 L196.0684,291.2754 Z " fill="#000000"/><ellipse cx="220.6152" cy="294.1348" fill="#84BE84" rx="3" ry="3" style="stroke:#038048;stroke-width:1.0;"/><text fill="#000000" font-family="sans-serif" font-size="14" font-style="italic" lengthAdjust="spacing" textLength="164.1924" x="226.6152" y="300.4316">ApduInterpreterFactorySpi</text><line style="stroke:#E74C3C;stroke-width:2.0;" x1="141.5" x2="432.4229" y1="310.6348" y2="310.6348"/><line style="stroke:#E74C3C;stroke-width:2.0;" x1="141.5" x2="432.4229" y1="318.6348" y2="318.6348"/><ellipse cx="151.5" cy="333.4453" fill="#84BE84" rx="3" ry="3" style="stroke:#038048;stroke-width:1.0;"/><text fill="#000000" font-family="sans-serif" font-size="14" lengthAdjust="spacing" textLength="266.9229" x="160.5" y="337.7422">ApduInterpreterSpi createApduInterpreter()</text></g><!--class ApduInterpreterSpi--><g id="elem_ApduInterpreterSpi"><rect codeLine="71" fill="#FDEDEC" height="103.8633" id="ApduInterpreterSpi" rx="2.5" ry="2.5" style="stroke:#E74C3C;stroke-width:2.0;" width="510.7295" x="70.5" y="424.6348"/><ellipse cx="257.3564" cy="440.6348" fill="#B4A7E5" rx="11" ry="11" style="stroke:#181818;stroke-width:1.0;"/><path d="M258.3096,437.2754 L258.3096,443.9316 L260.0283,443.9316 Q260.6377,443.9316 260.9033,444.166 Q261.1689,444.4004 261.1689,444.791 Q261.1689,445.166 260.9033,445.4004 Q260.6377,445.6348 260.0283,445.6348 L254.8877,445.6348 Q254.2783,445.6348 254.0127,445.4004 Q253.7471,445.166 253.7471,444.7754 Q253.7471,444.4004 254.0127,444.166 Q254.2783,443.9316 254.8877,443.9316 L256.6064,443.9316 L256.6064,437.2754 L254.8877,437.2754 Q254.2783,437.2754 254.0127,437.041 Q253.7471,436.8066 253.7471,436.416 Q253.7471,436.041 254.0127,435.8066 Q254.2783,435.5723 254.8877,435.5723 L260.0283,435.5723 Q260.6377,435.5723 260.9033,435.8066 Q261.1689,436.041 261.1689,436.416 Q261.1689,436.8066 260.9033,437.041 Q260.6377,437.2754 260.0283,437.2754 L258.3096,437.2754 Z " fill="#000000"/><ellipse cx="282.8564" cy="440.1348" fill="#84BE84" rx="3" ry="3" style="stroke:#038048;stroke-width:1.0;"/><text fill="#000000" font-family="sans-serif" font-size="14" font-style="italic" lengthAdjust="spacing" textLength="117.5166" x="288.8564" y="446.4316">ApduInterpreterSpi</text><line style="stroke:#E74C3C;stroke-width:2.0;" x1="71.5" x2="580.2295" y1="456.6348" y2="456.6348"/><line style="stroke:#E74C3C;stroke-width:2.0;" x1="71.5" x2="580.2295" y1="464.6348" y2="464.6348"/><ellipse cx="81.5" cy="479.4453" fill="#84BE84" rx="3" ry="3" style="stroke:#038048;stroke-width:1.0;"/><text fill="#000000" font-family="sans-serif" font-size="14" lengthAdjust="spacing" textLength="484.7295" x="90.5" y="483.7422">void setCommandProcessor(CommandProcessorApi CommandProcessorApi)</text><text fill="#000000" font-family="sans-serif" font-size="14" lengthAdjust="spacing" textLength="3.8896" x="90.5" y="502.3633">&#160;</text><ellipse cx="81.5" cy="516.6875" fill="#84BE84" rx="3" ry="3" style="stroke:#038048;stroke-width:1.0;"/><text fill="#000000" font-family="sans-serif" font-size="14" lengthAdjust="spacing" textLength="198.4473" x="90.5" y="520.9844">byte[] processApdu(byte[] apdu)</text></g><!--reverse link ApduInterpreterFactory to ApduInterpreterFactorySpi--><g id="link_ApduInterpreterFactory_ApduInterpreterFactorySpi"><path d="M236.2328,157.2474 C247.5628,191.5674 263.28,239.2348 276.22,278.4548 " fill="none" id="ApduInterpreterFactory-backto-ApduInterpreterFactorySpi" style="stroke:#181818;stroke-width:2.0;"/><polygon fill="none" points="230.59,140.1548,230.5352,159.1284,241.9303,155.3665,230.59,140.1548" style="stroke:#181818;stroke-width:2.0;"/></g><!--link ApduInterpreterFactorySpi to ApduInterpreterSpi--><g id="link_ApduInterpreterFactorySpi_ApduInterpreterSpi"><path codeLine="81" d="M294.89,346.0148 C300.3,368.5548 306.1794,393.0605 312.3394,418.7205 " fill="none" id="ApduInterpreterFactorySpi-to-ApduInterpreterSpi" style="stroke:#181818;stroke-width:2.0;"/><polygon fill="#181818" points="313.74,424.5548,315.5286,414.8697,312.5728,419.6929,307.7496,416.7371,313.74,424.5548" style="stroke:#181818;stroke-width:2.0;"/><polygon fill="#000000" points="312.1669,390.1422,312.9138,380.661,307.1982,382.0328,312.1669,390.1422" style="stroke:#000000;stroke-width:1.0;"/><text fill="#000000" font-family="sans-serif" font-size="13" lengthAdjust="spacing" textLength="36.1309" x="320" y="390.6631">create</text></g><!--link ApduInterpreterSpi to CommandProcessorApi--><g id="link_ApduInterpreterSpi_CommandProcessorApi"><path codeLine="82" d="M326,528.7448 C326,553.2248 326,576.9248 326,603.4448 " fill="none" id="ApduInterpreterSpi-to-CommandProcessorApi" style="stroke:#181818;stroke-width:2.0;"/><polygon fill="#181818" points="326,609.4448,330,600.4448,326,604.4448,322,600.4448,326,609.4448" style="stroke:#181818;stroke-width:2.0;"/><polygon fill="#000000" points="331,575.2803,333.9389,566.2352,328.0611,566.2352,331,575.2803" style="stroke:#000000;stroke-width:1.0;"/><text fill="#000000" font-family="sans-serif" font-size="13" lengthAdjust="spacing" textLength="20.96" x="340" y="575.6631">use</text></g><!--SRC=[ZLPjR-8u4FxEhvZhVjYsUm4QO2dLRgMGE7jeUxGgzAJgT3gvYGi-GXpPJZbKyTzlyWP9cfRZGx77pppFp7WyL7CTi1RWvoVRHW430rRfmeY2UC53GsaXwO9vLFh6F_I56ZJY2BfeTzjVuDJicWEZQnhcnLcBXJxebAxr6Rv_X_blv7U22zpQ8WvOB1LmfMAcm6Tm1Kkj8tNLwIprEl148AGdVARQdbXtdcL7qwU0qTZmcU5btWqcN2g-235MgZkjNtpsp4C6zjy_xidZ1RYNxiWTrSmckARRS_irSm_8W0n97Tq7P-YC7QTc7e1jsQvZrinVOUpOFNjOCjzCfZ-XrnzTEkEIzM56m1nQv6itgPLXm4nl0woBNb8DlWW_QzW8kO8Drqi8sGPUc5HSX22U0NCDTRmEqAsbLZoCgAHhK9f99lGsOjPOI9z9EwaeVB96ZksuZS191JZkMqCoQ0JQLKR7kHYRZK1I0PBng8VIQNvawYJnbhpiW2gLuUTBxgr2fXIKQIqfnQPyX4oFB0Z4vWqBzLOBAUBGpvLTuXARD8lb4ATlsLq7AU-PVuJlspV9_Ejhf7M8G-mFQFT8CknZ7xIM71kzC1xAXAftiSGtTbGuIc6fTf_Oxl13xGFualJxbbF8x-sL29w2-BX-0ahp6Ri3T_oXUW7DUptNpgqLvH-IiV2ez291fTeZTqZS3xNtsFnDvUA5kQw-_J_YsrJRmZuYnxHJg6dtoA0ilQqgPpFHlftEoNIUJiK8LN6omecGYpRp0Xufriw6Bmv1oThP16wN9l09K0N90FvKpBZNT7P_yPAuuEJy70SC3SxFuIxrdMMkDhfQ4R-J8c9ISwPIdegbLAwCCgLzLPfgxktWG3pJaeSB-8FSpoQtqnIwosBW8MRxJ3s6p7uyINQHPFZNfHx6iTs_XDUIrxu8gJTAfA4Lco9FSnzKISKMwpKDVSp1mm4X9EPJYXsXJrlD_lmBjAIXMdCzKI89x3GtKroVjHhm2wOV9ixfMSEHPDGV1y9RdM8O-8HmPVc-HFbVavWXOE52BokUBuBxi95Si_SSSswVQbfuxlBleZhgSEMzylqSA_aC_Oggityr_aAdxTD-vu8grQjX4YeFyzUiTb0grAufifEtH7dxlU6lDaYrX8hf-eMVDdL0WwroouVBZ3B8svwefxFB-tMNF68BIJsEhqA4glL-rGtZkYd3gxo6SDrgE4sScdAwWbWbBjaCkR4URn-o4PBkP_F7c_J_hFy0]--></g></svg>